<mxfile host="app.diagrams.net" modified="2023-10-01T02:14:26.999Z" agent="Mozilla/5.0 (Windows NT 10.0; Win64; x64) AppleWebKit/537.36 (KHTML, like Gecko) Chrome/116.0.0.0 Safari/537.36" version="22.0.0" etag="rFLYm8Fl1Yd3qwE4xfar" type="github">
  <diagram name="Page-1" id="oVe9yC9cJWeHVom-q5wx">
    <mxGraphModel>
      <root>
        <mxCell id="0" />
        <mxCell id="1" parent="0" />
      </root>
    </mxGraphModel>
  </diagram>
</mxfile>
